<svg xmlns="http://www.w3.org/2000/svg" viewBox="0 0 800 600"><defs><linearGradient id="b" x2="1" y2="1"><stop stop-color="#211327"/><stop offset="1" stop-color="#6b3f2e"/></linearGradient></defs><rect width="800" height="600" fill="url(#b)"/><rect x="80" y="90" width="640" height="430" rx="24" fill="#2a1a22" opacity=".7"/><path d="M115 165c150-65 230-65 310 10v260c-95-64-185-58-310 0z" fill="#e2d3bd"/><path d="M425 175c90-65 170-72 260-12v272c-118-55-188-60-260 0z" fill="#f0e3cf"/><path d="M425 175v260" stroke="#b9a48b" stroke-width="4"/><g stroke="#bca993" stroke-width="5" opacity=".7"><path d="M145 225h220M145 265h210M145 305h225M145 345h190"/><path d="M465 220h165M465 260h175M465 300h145M465 340h180"/></g><ellipse cx="650" cy="125" rx="58" ry="26" fill="#d7c2aa"/><rect x="596" y="120" width="108" height="95" rx="28" fill="#c9b398"/><ellipse cx="650" cy="128" rx="38" ry="13" fill="#49291f"/><path d="M704 145c55-5 55 62 4 57" fill="none" stroke="#c9b398" stroke-width="18"/></svg>